<svg id="Capa_1" enable-background="new 0 0 512 512" height="512" viewBox="0 0 512 512" width="512" xmlns="http://www.w3.org/2000/svg"><g><path d="m45.16 0v512h301.12v-512z" fill="#5374b9"/><path d="m195.72 0h150.56v512h-150.56z" fill="#415ca7"/><path d="m316.28 30v452h-241.12v-452h64.92l10.76 36h89.76l10.75-36z" fill="#f9f9f9"/><path d="m316.28 30v452h-120.56v-416h44.88l10.75-36z" fill="#eceae7"/><path d="m180.72 421.75h30v30h-30z" fill="#5374b9"/><path d="m195.72 421.75h15v30h-15z" fill="#415ca7"/><path d="m466.84 128v256h-98.18l-37.38 32-37.38-32h-98.18v-256z" fill="#f95758"/><path d="m466.84 128v256h-98.18l-37.38 32v-288z" fill="#e00f5b"/><path d="m402.2 242.06c0 22.31-18.95 48.53-70.92 81.06-51.96-32.53-70.92-58.75-70.92-81.06 0-22.35 18.12-40.47 40.47-40.47 12.15 0 23.03 5.36 30.45 13.83 7.42-8.47 18.31-13.83 30.45-13.83 22.35 0 40.47 18.12 40.47 40.47z" fill="#f9f9f9"/><path d="m402.2 242.06c0 22.31-18.95 48.53-70.92 81.06v-107.7c7.42-8.47 18.31-13.83 30.45-13.83 22.35 0 40.47 18.12 40.47 40.47z" fill="#eceae7"/></g></svg>